<svg version="1.2" xmlns="http://www.w3.org/2000/svg" viewBox="0 0 844 728" width="844" height="728"><defs><linearGradient id="P" gradientUnits="userSpaceOnUse"/><linearGradient id="g1" x2="1" href="#P" gradientTransform="matrix(0,-624.164,379.596,0,-50.261,695.68)"><stop stop-color="#3d1f81"/><stop offset="1" stop-color="#6b34a6"/></linearGradient></defs><style>tspan{white-space:pre}.a{fill:#d6e3fe}.b{fill:#bc74e1}.c{fill:#a364c8}.d{fill:#08e1b6}.e{fill:#04c89b}.f{fill:#6833a3}.g{opacity:.4;fill:#6833a3}.h{fill:none;stroke:#6833a3;stroke-miterlimit:10;stroke-width:2}.i{fill:#7ca1d6}.j{fill:url(#g1)}.k{fill:#fff}.l{fill:#5b8cdd}.m{fill:#a9c7f9}.n{font-size: 39px;text-transform: uppercase;fill: #ffffff;font-weight: 900;font-family: "Montserrat-Black", "Montserrat"}.o{opacity:.4;mix-blend-mode:overlay;fill:#fff}.p{opacity:.4;mix-blend-mode:multiply;fill:none;stroke:#402083;stroke-miterlimit:10;stroke-width:8}.q{fill:#008487}.r{fill:#00cbdc}.s{font-size: 33px;text-transform: uppercase;fill: #ffffff;font-weight: 900;font-family: "Montserrat-Black", "Montserrat"}.t{fill:#235098}.u{fill:#4883ed}.v{font-size: 28px;text-transform: uppercase;fill: #ffffff;font-weight: 900;font-family: "Montserrat-Black", "Montserrat"}.w{font-size: 13px;text-transform: uppercase;fill: #ffffff;font-weight: 800;font-family: "Montserrat-ExtraBold", "Montserrat"}.x{font-size: 14px;text-transform: uppercase;fill: #6833a3;font-weight: 900;font-family: "Montserrat-Black", "Montserrat"}.y{fill:none;stroke:#6833a3;stroke-miterlimit:10;stroke-width:6}.z{fill:none;stroke:#6833a3;stroke-miterlimit:10;stroke-width:4}</style><path class="a" d="m843.1 685.2c0 23.3-186.4 42.2-416.5 42.2-230.1 0-416.5-18.9-416.5-42.2 0-23.4 186.4-42.3 416.5-42.3 230.1 0 416.5 18.9 416.5 42.3z"/><path class="b" d="m229.7 529.7c-5.3 0.5-10.4 2.5-15.7 2.5-6.4-0.1-5.7-20.6-6.5-25.8-1.9-12.8-7.2-26.1-18.6-33.1-10.8-6.7-25.3-5.4-34.7 2.9-6.2 5.5-10 13-13.6 20.5-2.9-3.1-6.1-5.7-7.8-7.4-10.5-10.3-21.7-19.9-33.8-28.2-9.2-6.5-21.7-14.5-33.5-13.8-13.2 0.9-14 15.7-12.7 25.8 0.2 0.8 0.3 1.7 0.5 2.5q-5.5-4.3-11.3-8.3c-11.4-8.1-27.5-9.8-36.6 2.3q-0.4 0.5-0.6 1-0.4 0.4-0.8 1c-7.8 12.6-0.9 26.7 10.3 34.6 4 2.7 8.1 5.3 12.2 7.7-9.5 1.7-19 5.2-21.7 13.7-3.6 10.9 7.6 20 14.5 26.4 10.8 9.9 24.2 17.2 37.2 23.8 6.9 3.6 14.1 7.5 21.6 10.2-5.3 5.8-10.4 11.6-14 18.8-5.6 11.3-1.3 25.4 7.8 33.6 10.2 9.1 24.3 9.2 37.1 7 4.9-0.8 25.2-9 27.8-4.4 2.3 4.2 2.5 9.9 3.4 14.6 1.2 6.8 4.1 13.1 8.9 18.1 9.1 9.7 23.2 10.3 35.6 8.9 14.2-1.7 28.3-7 41.3-13 7-3.2 13.9-6.9 20.9-10.4 3.3-1.7 9.8-7.6 13.7-6.8 2.1 0.8 4.3 0.4 6-0.9q0.7-0.5 1.3-1.2 0 0 0 0 0.1-0.2 0.3-0.4 0 0 0.1-0.1 0.1-0.1 0.1-0.2 0.2-0.2 0.3-0.4 0 0 0 0 0.4-0.8 0.6-1.7c0.6-2 0.2-4.2-1.3-5.9-1.9-3 0.7-9.9 1.2-13.2 1.2-7.6 1.7-15.5 2.3-23.2 1.2-14.4 0.8-29.2-2.1-43.5-2.5-12.2-8.2-25.1-19.8-31-6.3-3.3-12.9-3.7-19.9-3z"/><path class="c" d="m129.9 505.2c0.1-1.7-1.1-3.1-2.8-3.3-1.6-0.2-3.1 1.1-3.3 2.7l-4 41.4q-17.9-12.3-35.8-24.6l4.3-44.8c0.1-1.6-1.1-3.1-2.7-3.3-1.7-0.1-3.2 1.1-3.3 2.8l-4 41.4q-19.9-13.7-39.8-27.4-0.1 0-0.1-0.1c-3.3-2.2-6.7 2.8-3.5 5q0.1 0.1 0.2 0.1 19.9 13.7 39.7 27.4l-37.2 18.5c-1.5 0.8-2.1 2.6-1.3 4.1 0.7 1.5 2.5 2.1 4 1.3l40.3-20q17.9 12.3 35.8 24.6l-37.2 18.6c-1.5 0.7-2.1 2.5-1.4 4 0.8 1.5 2.6 2.2 4.1 1.4l40.2-20q19.3 13.2 38.6 26.5l-37.2 18.6c-1.5 0.7-2.1 2.5-1.3 4 0.7 1.5 2.5 2.1 4 1.4l40.3-20.1q21 14.5 42 28.9l-37.2 18.6c-1.5 0.7-2.1 2.6-1.4 4.1 0.8 1.4 2.6 2.1 4.1 1.3l40.2-20q18.8 12.9 37.6 25.8c3.2 2.2 6.6-2.8 3.4-5q-18.8-12.9-37.5-25.8l4.3-44.8c0.1-1.7-1.1-3.1-2.8-3.3-1.6-0.1-3.1 1.1-3.3 2.7l-3.9 41.4q-21.1-14.4-42.1-28.9l4.3-44.7c0.2-1.7-1.1-3.2-2.7-3.3-1.7-0.2-3.2 1-3.3 2.7l-4 41.4q-19.3-13.3-38.6-26.5z"/><path class="d" d="m330.2 483.7c-6.7-1.7-13.7-1.4-20.3-3.7-7.8-2.7 1.8-27.5 3.1-34.1 3.1-16.5 2.3-35-8.7-48.4-10.3-12.7-28.5-17.3-43.5-11.2-9.9 4-17.7 11.6-25.3 19.2-2.3-4.9-5-9.5-6.4-12.3-8.4-17-18.1-33.5-29.2-48.8-8.6-11.8-20.4-26.9-35.1-31-16.5-4.6-23.8 13.1-26.4 26-0.2 1.1-0.4 2.2-0.5 3.3q-5-7.6-10.2-15c-10.5-14.6-29.4-23.6-45.7-12.7-0.5 0.3-0.9 0.6-1.2 1-0.5 0.2-0.9 0.5-1.4 0.8-14.9 12.1-12.5 32.3-2 46.6 3.6 5.1 7.5 9.9 11.5 14.7-12.3-2.1-25.3-1.8-32.4 7.4-9 11.8 0.8 27.7 6.6 38.3 8.9 16.7 22.2 31.4 35.2 45 6.9 7.2 14.1 15.1 22.1 21.5-8.9 4.9-17.7 9.8-25.1 17.1-11.6 11.4-12.4 30.5-4.8 44.3 8.6 15.4 25.8 21.6 42.4 24.4 6.3 1 34.6-0.4 35.7 6.4 1 6.1-1.1 13.2-2.1 19.2-1.4 8.8-0.5 17.8 3.2 25.9 7.1 15.7 24 22.5 39.7 26 18.1 4 37.5 3.5 55.9 1.7 10-1 20-2.5 29.9-3.9 4.8-0.7 15.2-5.1 19.7-2.4 2.2 1.9 5.1 2.3 7.7 1.5q1.1-0.4 2.1-1 0 0 0 0 0.2-0.1 0.5-0.3 0.1-0.1 0.2-0.1 0.1-0.1 0.2-0.2 0.3-0.2 0.5-0.4 0 0 0 0 0.8-0.8 1.5-1.7c1.5-2.3 2.1-5.1 0.9-7.8-1.1-4.6 5-11.9 7-15.6 4.7-8.8 8.7-18.2 12.8-27.3 7.6-17.2 13.4-35.4 15.8-54 2.2-16 0.8-34.2-10.9-46.3-6.4-6.6-14.3-10-23-12.1z"/><path class="e" d="m218.7 411.3c0.9-1.9 0.1-4.2-1.9-5.1-2-0.9-4.3-0.1-5.2 1.9l-22.4 48.8q-16.7-22.6-33.3-45.3l24.2-52.8c0.9-1.9 0.1-4.3-1.9-5.2-1.9-0.9-4.3 0-5.2 1.9l-22.4 48.9q-18.5-25.1-36.9-50.3-0.1-0.1-0.2-0.2c-3-4-9.3 0.6-6.3 4.7q0.1 0.1 0.2 0.2 18.4 25.1 36.9 50.2l-53.4 6.8c-2.1 0.3-3.6 2.3-3.3 4.4 0.2 2.2 2.2 3.7 4.3 3.4l57.7-7.4q16.6 22.7 33.2 45.4l-53.3 6.8c-2.1 0.2-3.6 2.2-3.4 4.4 0.3 2.1 2.3 3.6 4.4 3.3l57.6-7.3q18 24.4 35.9 48.8l-53.3 6.8c-2.2 0.3-3.7 2.2-3.4 4.4 0.3 2.1 2.2 3.6 4.4 3.4l57.6-7.4q19.5 26.6 39 53.2l-53.3 6.8c-2.1 0.3-3.6 2.2-3.4 4.4 0.3 2.1 2.3 3.6 4.4 3.4l57.6-7.4q17.5 23.7 34.9 47.4c3 4.1 9.3-0.5 6.3-4.6q-17.4-23.7-34.8-47.4l24.2-52.8c0.9-2 0.1-4.3-1.9-5.2-2-0.9-4.3-0.1-5.2 1.9l-22.4 48.8q-19.6-26.5-39.1-53.1l24.3-52.8c0.9-2 0-4.3-1.9-5.2-2-0.9-4.3-0.1-5.2 1.9l-22.5 48.9q-17.9-24.4-35.8-48.9z"/><path class="d" d="m608.5 543.1c-8.5 5.8-11.6 16.4-12.4 26.2-0.9 11.5 0.3 23.1 2.7 34.3 1.2 6 2.4 12.1 4.1 17.9 0.7 2.5 3.5 7.7 2.2 10.2-1 1.5-1.1 3.3-0.4 4.8q0.2 0.7 0.7 1.2 0 0 0 0 0.1 0.2 0.2 0.3 0 0.1 0.1 0.2 0.1 0 0.1 0.1 0.1 0.1 0.3 0.2 0 0 0 0 0.5 0.5 1.1 0.9c1.5 0.8 3.2 0.9 4.8 0.1 3-1.1 8.7 2.9 11.4 3.9 5.8 2.1 11.6 4.3 17.4 6.1 10.8 3.4 22.3 6.1 33.6 6.1 9.9-0.1 20.8-2.1 27-10.5 3.3-4.4 4.9-9.7 5.2-15.1 0.2-3.7-0.2-8.2 1.2-11.7 1.5-3.9 18.3 0.5 22.2 0.7 10.2 0.4 21.3-1.1 28.4-9.2 6.3-7.3 8.2-18.8 2.7-27.1-3.5-5.3-8.1-9.3-12.8-13.4 5.6-2.8 10.9-6.6 15.9-10 9.5-6.5 19.3-13.6 26.8-22.4 4.8-5.7 12.6-13.9 8.7-22.1-3-6.4-10.8-8.2-18.3-8.5 2.9-2.4 5.9-4.8 8.7-7.3 8-7.3 12-19 4.7-28.1q-0.4-0.4-0.7-0.7-0.3-0.4-0.6-0.8c-8.4-8.5-20.8-5.5-28.9 1.9q-4.1 3.7-8 7.6c0-0.7 0.1-1.3 0.1-2 0.1-8-2.1-19.5-12.5-18.9-9.3 0.6-18.3 8.1-24.9 14.1-8.6 7.7-16.4 16.3-23.6 25.4-1.2 1.5-3.4 3.9-5.4 6.6-3.6-5.5-7.3-11-12.7-14.7-8.2-5.6-19.6-5.1-27.4 1.1-8.3 6.7-11.1 17.6-11.3 27.8-0.1 4.2 2.5 20.2-2.5 20.8-4.2 0.6-8.4-0.5-12.6-0.4-5.5 0.2-10.6 1.2-15.3 4.4z"/><path class="e" d="m699.6 509.7c-0.3-1.3 0.5-2.6 1.8-2.9 1.3-0.3 2.5 0.5 2.8 1.8l7.3 32.1q12.8-11.5 25.6-22.9l-7.8-34.6c-0.3-1.3 0.5-2.6 1.8-2.9 1.3-0.3 2.5 0.5 2.8 1.8l7.3 32.1q14.2-12.7 28.4-25.4 0 0 0.1-0.1c2.3-2 5.5 1.5 3.2 3.6q-0.1 0-0.1 0.1-14.2 12.7-28.5 25.3l31 10.9c1.3 0.4 1.9 1.8 1.5 3-0.4 1.3-1.8 1.9-3 1.5l-33.5-11.7q-12.9 11.4-25.7 22.8l31 10.9c1.3 0.4 1.9 1.8 1.5 3-0.4 1.2-1.8 1.9-3.1 1.5l-33.4-11.7q-13.9 12.3-27.7 24.6l31 10.8c1.3 0.4 1.9 1.8 1.5 3.1-0.4 1.2-1.8 1.9-3 1.4l-33.5-11.7q-15.1 13.4-30.1 26.8l31 10.9c1.2 0.4 1.9 1.8 1.5 3-0.5 1.2-1.8 1.9-3.1 1.5l-33.5-11.7q-13.4 11.9-26.8 23.9c-2.3 2-5.5-1.5-3.2-3.6q13.4-11.9 26.8-23.9l-7.8-34.6c-0.3-1.3 0.5-2.6 1.8-2.9 1.3-0.3 2.6 0.5 2.9 1.8l7.2 32.1q15-13.4 30.1-26.9l-7.8-34.6c-0.3-1.3 0.5-2.5 1.8-2.8 1.3-0.3 2.5 0.5 2.8 1.8l7.3 32q13.8-12.3 27.6-24.6z"/><path class="b" d="m635.1 266.6c-3.8 5.2-3.5 12.2-1.9 18.1 1.9 6.9 5 13.5 8.8 19.6 2 3.3 3.9 6.6 6.2 9.7 0.9 1.3 3.6 3.8 3.4 5.5-0.3 1.1 0 2.2 0.7 2.9q0.3 0.4 0.7 0.6 0 0 0 0 0.1 0.1 0.2 0.1 0 0.1 0.1 0.1 0 0 0.1 0 0.1 0.1 0.2 0.1 0 0 0 0 0.4 0.2 0.8 0.3c1 0.2 2.1-0.1 2.9-0.9 1.5-1.3 5.7-0.1 7.5-0.1 3.8 0 7.7 0.1 11.5-0.1 7.1-0.2 14.4-1 21.1-3.4 5.7-2.1 11.8-5.6 13.7-11.8 1-3.3 0.9-6.8-0.1-10-0.7-2.2-1.9-4.8-1.8-7.2 0.1-2.6 10.9-3.5 13.2-4.2 6.1-1.9 12.3-5.1 14.8-11.3 2.2-5.7 1-12.8-4-16.5-3.2-2.4-6.8-3.9-10.4-5.2 2.7-2.9 5-6.2 7.3-9.3 4.2-5.8 8.5-12 11.1-18.8 1.6-4.3 4.5-10.8 0.5-14.8-3.1-3.1-8.1-2.6-12.6-1.2 1.3-2 2.5-4 3.6-6.1 3.2-6 3.1-13.7-3.1-17.5q-0.3-0.2-0.6-0.3-0.2-0.1-0.5-0.3c-6.7-3.3-13.4 1.1-16.6 7.1q-1.6 3.1-3.1 6.2-0.2-0.6-0.4-1.2c-1.6-4.8-5.3-11.1-11.3-8.5-5.3 2.3-9 8.6-11.7 13.5-3.4 6.3-6.2 13-8.6 19.9-0.4 1.1-1.2 3-1.8 5-3.2-2.5-6.6-5-10.5-6-6-1.6-12.6 1.1-15.9 6.4-3.5 5.6-2.8 12.7-0.8 18.7 0.8 2.5 5.6 11.4 2.8 12.8-2.3 1.2-5 1.4-7.4 2.4-3.3 1.2-6.1 2.9-8.1 5.7z"/><path class="c" d="m681.7 227.9c-0.5-0.7-0.3-1.6 0.4-2 0.7-0.5 1.6-0.3 2.1 0.4l10.9 17.4q5.2-9.4 10.3-18.8l-11.8-18.8c-0.4-0.7-0.2-1.6 0.5-2 0.7-0.5 1.6-0.3 2 0.4l11 17.4q5.7-10.5 11.4-20.9 0 0 0.1-0.1c0.9-1.7 3.5-0.2 2.6 1.5q0 0-0.1 0-5.7 10.5-11.4 20.9l20.5-0.1c0.8 0 1.5 0.7 1.5 1.5 0 0.8-0.6 1.5-1.5 1.5l-22.1 0.1q-5.2 9.4-10.3 18.8l20.5-0.1c0.8 0 1.5 0.7 1.5 1.5 0 0.8-0.7 1.5-1.5 1.5l-22.2 0.1q-5.5 10.1-11.1 20.3l20.5-0.1c0.8 0 1.5 0.6 1.5 1.5 0 0.8-0.6 1.5-1.5 1.5l-22.1 0.1q-6.1 11-12.1 22l20.5-0.1c0.8 0 1.5 0.7 1.5 1.5 0 0.9-0.7 1.5-1.5 1.5l-22.2 0.1q-5.4 9.9-10.8 19.7c-0.9 1.7-3.5 0.3-2.6-1.4q5.4-9.9 10.8-19.7l-11.8-18.7c-0.5-0.7-0.2-1.7 0.4-2.1 0.7-0.4 1.7-0.2 2.1 0.5l11 17.3q6-11 12.1-22.1l-11.9-18.7c-0.4-0.7-0.2-1.6 0.5-2.1 0.7-0.4 1.6-0.2 2 0.5l11 17.3q5.5-10.1 11.1-20.2z"/><path class="f" d="m197.3 36.3h-17.7l15.4-35.8h17.7z"/><path class="f" d="m222.9 36.3h-17.6l15.4-35.8h17.7z"/><path class="f" d="m248.6 36.3h-17.7l15.4-35.8h17.7z"/><path class="g" d="m274.2 36.3h-17.7l15.5-35.8h17.6z"/><path class="g" d="m299.9 36.3h-17.7l15.4-35.8h17.7z"/><path class="g" d="m325.5 36.3h-17.7l15.4-35.8h17.7z"/><path class="g" d="m351.1 36.3h-17.6l15.4-35.8h17.7z"/><path class="h" d="m776.9 107.5c0 8.2-6.6 14.8-14.8 14.8h-73c-8.2 0-14.8-6.6-14.8-14.8v-53.4c0-8.2 6.6-14.8 14.8-14.8h73c8.2 0 14.8 6.6 14.8 14.8z"/><path class="f" d="m740.2 84.7h-29.1v-7.7h29.1z"/><path class="f" d="m721.7 95.4v-29.1h7.8v29.1z"/><path fill-rule="evenodd" class="f" d="m212 131.2q-0.6 2.4-1.9 4.5l8 8-5.5 5.5-8-7.9q-2.1 1.2-4.5 1.9v11.2h-7.8v-11.2q-2.5-0.7-4.6-1.9l-8 7.9-5.5-5.5 8-8q-1.3-2.1-1.9-4.5h-11.3v-7.8h11.3q0.6-2.5 1.9-4.6l-8-7.9 5.5-5.6 8 8q2.1-1.3 4.6-1.9v-11.2h7.8v11.2q2.4 0.6 4.5 1.9l8-8 5.5 5.6-8 7.9q1.3 2.1 1.9 4.6h11.3v7.8zm-8.4-3.9c0-4.1-3.4-7.4-7.5-7.4-4.1 0-7.4 3.3-7.4 7.4 0 4.1 3.3 7.4 7.4 7.4 4.1 0 7.5-3.3 7.5-7.4z"/><path fill-rule="evenodd" class="b" d="m435.5 25.4q-0.3 1.4-1.1 2.7l4.8 4.8-3.3 3.3-4.8-4.8q-1.3 0.8-2.8 1.2v6.7h-4.6v-6.8q-1.5-0.3-2.8-1.1l-4.8 4.8-3.3-3.3 4.8-4.8q-0.8-1.3-1.1-2.7h-6.8v-4.7h6.8q0.3-1.5 1.1-2.8l-4.8-4.7 3.3-3.4 4.8 4.8q1.3-0.7 2.8-1.1v-6.8h4.6v6.8q1.5 0.4 2.8 1.1l4.8-4.8 3.3 3.4-4.8 4.7q0.8 1.3 1.1 2.8h6.8v4.7zm-5.1-2.4c0-2.4-2-4.4-4.4-4.4-2.5 0-4.5 2-4.5 4.4 0 2.5 2 4.5 4.5 4.5 2.4 0 4.4-2 4.4-4.5z"/><path class="i" d="m620.9 80.3h-333.7c-1.9 0-3.7 0.3-5.5 0.7l-0.9-3.7-8.8 8.9q-1 0.9-1.9 1.9l-0.2 0.1v0.1c-3.5 4-5.6 9.2-5.6 15v578.3c0 12.6 10.2 22.9 22.9 22.9h333.7c12.7 0 23-10.3 23-22.9v-578.3c0-12.7-10.3-23-23-23z"/><path class="j" d="m652.7 672.8c0 12.6-10.3 22.9-22.9 22.9h-333.8c-12.6 0-22.9-10.3-22.9-22.9v-578.4c0-12.6 10.3-22.9 22.9-22.9h333.8c12.6 0 22.9 10.3 22.9 22.9z"/><path class="k" d="m529.1 111.5c0 2.7-2.2 4.9-4.9 4.9h-125.7c-2.8 0-5-2.2-5-4.9 0-2.7 2.2-4.9 5-4.9h125.7c2.7 0 4.9 2.2 4.9 4.9z"/><path class="k" d="m565.4 111.5c0 4.8-3.8 8.6-8.6 8.6-4.8 0-8.7-3.8-8.7-8.6 0-4.8 3.9-8.7 8.7-8.7 4.8 0 8.6 3.9 8.6 8.7z"/><path class="l" d="m404.3 289.3c0 11-8.9 19.9-19.9 19.9h-229.3c-10.9 0-19.8-8.9-19.8-19.9v-88.5c0-11 8.9-19.9 19.8-19.9h229.3c11 0 19.9 8.9 19.9 19.9z"/><path class="m" d="m410.9 282.7c0 11-8.9 19.8-19.9 19.8h-229.2c-11 0-19.9-8.8-19.9-19.8v-88.5c0-11 8.9-19.9 19.9-19.9h229.2c11 0 19.9 8.9 19.9 19.9z"/><text style="transform:matrix(2,0,0,2,197.298,264.836)" ><tspan x="0" y="0" class="n" dx="0 8 8 8" >&lt;/&gt;
</tspan></text><path class="o" d="m628.2 174.5h-183.8v-11.8h183.8z"/><path class="o" d="m628.2 196.3h-77.6v-11.8h77.6z"/><path class="o" d="m628.2 253.6h-31.5v-11.9h31.5z"/><path class="o" d="m628.2 220.2h-135.9v-11.9h135.9z"/><path class="o" d="m575.7 253.6h-123.1v-11.9h123.1z"/><path class="p" d="m492.7 289v83.7h-132.2v81.6"/><path class="p" d="m533.4 579.8v-90.6h-81.5"/><path class="q" d="m453.4 535.4c0 11-8.9 19.8-19.9 19.8h-198.4c-10.9 0-19.8-8.8-19.8-19.8v-88.5c0-11 8.9-19.9 19.8-19.9h198.4c11 0 19.9 8.9 19.9 19.9z"/><path class="r" d="m460 528.8c0 10.9-8.9 19.8-19.9 19.8h-198.3c-11 0-19.9-8.9-19.9-19.8v-88.6c0-10.9 8.9-19.8 19.9-19.8h198.3c11 0 19.9 8.9 19.9 19.8z"/><text style="transform:matrix(2,0,0,2,268.702,509.752)" ><tspan x="0" y="0" class="s" dx="0 7 7 7" >C++
</tspan></text><path class="k" d="m581.3 445.9h-4.5v7.7h4.5z"/><path class="k" d="m581.3 432.3h-4.5v7.6h4.5z"/><path class="k" d="m581.3 418.7h-4.5v7.6h4.5z"/><path class="k" d="m581.3 487h-4.5v7.6h4.5z"/><path class="k" d="m581.3 473.3h-4.5v7.7h4.5z"/><path class="k" d="m581.3 459.7h-4.5v7.6h4.5z"/><path class="k" d="m581.3 528.1h-4.5v7.6h4.5z"/><path class="k" d="m581.3 514.4h-4.5v7.6h4.5z"/><path class="k" d="m581.3 500.8h-4.5v7.6h4.5z"/><path class="k" d="m581.3 569.1h-4.5v7.7h4.5z"/><path class="k" d="m581.3 555.5h-4.5v7.6h4.5z"/><path class="k" d="m581.3 541.8h-4.5v7.7h4.5z"/><path class="t" d="m812.7 422.5c0 11-8.9 19.9-19.8 19.9h-229.3c-11 0-19.9-8.9-19.9-19.9v-88.5c0-11 8.9-19.9 19.9-19.9h229.3c10.9 0 19.8 8.9 19.8 19.9z"/><path class="u" d="m819.3 415.9c0 11-8.9 19.8-19.8 19.8h-229.3c-11 0-19.9-8.8-19.9-19.8v-88.5c0-11 8.9-19.9 19.9-19.9h229.3c10.9 0 19.8 8.9 19.8 19.9z"/><text style="transform:matrix(2,0,0,2,594.178,392.178)" ><tspan x="0" y="0" class="v" dx="0 6 6 6 6" >JAVA
</tspan></text><path class="k" d="m365.5 351.1v4.5h6.7v-4.5z"/><path class="k" d="m353.5 351.1v4.5h6.7v-4.5z"/><path class="k" d="m341.5 351.1v4.5h6.7v-4.5z"/><path class="k" d="m401.7 351.1v4.5h6.7v-4.5z"/><path class="k" d="m389.6 351.1v4.5h6.7v-4.5z"/><path class="k" d="m377.6 351.1v4.5h6.7v-4.5z"/><path class="k" d="m437.8 351.1v4.5h6.7v-4.5z"/><path class="k" d="m425.8 351.1v4.5h6.7v-4.5z"/><path class="k" d="m413.8 351.1v4.5h6.7v-4.5z"/><path class="k" d="m339.4 373h4.5v-8.2h-4.5z"/><path class="k" d="m339.4 387.7h4.5v-8.2h-4.5z"/><path class="k" d="m339.4 402.3h4.5v-8.2h-4.5z"/><path class="o" d="m606.2 640.8h-274.1v-41.5h274.1z"/><text style="opacity:.4;transform:matrix(2,0,0,2,364.967,629.059)" ><tspan x="0" y="0" class="w" dx="0 3 3 3 3 3 3 3 3 3" >CONNECTED
</tspan></text><text style="transform:matrix(2,0,0,2,492.33,36.331)" ><tspan x="0" y="0" class="x" dx="0 3 3 3 3 3 3" >PYTHON
</tspan></text><path class="y" d="m800.8 248.3c0 5.5-4.4 9.9-9.9 9.9-5.5 0-9.9-4.4-9.9-9.9 0-5.4 4.4-9.9 9.9-9.9 5.5 0 9.9 4.5 9.9 9.9z"/><path class="z" d="m841 168.6c0 4-3.3 7.2-7.3 7.2-3.9 0-7.2-3.2-7.2-7.2 0-4 3.3-7.2 7.2-7.2 4 0 7.3 3.2 7.3 7.2z"/><path class="z" d="m122.7 84.7c0 4-3.3 7.2-7.2 7.2-4 0-7.3-3.2-7.3-7.2 0-4 3.3-7.2 7.3-7.2 3.9 0 7.2 3.2 7.2 7.2z"/></svg>